<mxfile host="app.diagrams.net" modified="2024-04-15T08:38:21.028Z" agent="Mozilla/5.0 (Windows NT 10.0; Win64; x64) AppleWebKit/537.36 (KHTML, like Gecko) Chrome/123.0.0.0 Safari/537.36" etag="CvTqnbp2d3NLFNB1MERV" version="24.2.2" type="device">
  <diagram name="페이지-1" id="NYAfq_e0CzjYHs5IKZ5X">
    <mxGraphModel dx="2031" dy="1111" grid="1" gridSize="10" guides="1" tooltips="1" connect="1" arrows="1" fold="1" page="1" pageScale="1" pageWidth="827" pageHeight="1169" math="0" shadow="0">
      <root>
        <mxCell id="0" />
        <mxCell id="1" parent="0" />
        <mxCell id="fM1rhRctBXFKmCM709nG-1" value="메인페이지 시작" style="strokeWidth=2;html=1;shape=mxgraph.flowchart.terminator;whiteSpace=wrap;" vertex="1" parent="1">
          <mxGeometry x="54" y="90" width="100" height="60" as="geometry" />
        </mxCell>
        <mxCell id="fM1rhRctBXFKmCM709nG-3" value="DB접속" style="rounded=0;whiteSpace=wrap;html=1;" vertex="1" parent="1">
          <mxGeometry x="44" y="190" width="120" height="60" as="geometry" />
        </mxCell>
        <mxCell id="fM1rhRctBXFKmCM709nG-4" value="DB접속&lt;div&gt;예외발생&lt;/div&gt;" style="rhombus;whiteSpace=wrap;html=1;" vertex="1" parent="1">
          <mxGeometry x="64" y="290" width="80" height="80" as="geometry" />
        </mxCell>
        <mxCell id="fM1rhRctBXFKmCM709nG-5" value="예외메세지 출력" style="shape=document;whiteSpace=wrap;html=1;boundedLbl=1;" vertex="1" parent="1">
          <mxGeometry x="230" y="290" width="120" height="80" as="geometry" />
        </mxCell>
        <mxCell id="fM1rhRctBXFKmCM709nG-6" value="" style="endArrow=classic;html=1;rounded=0;exitX=0.5;exitY=1;exitDx=0;exitDy=0;exitPerimeter=0;entryX=0.5;entryY=0;entryDx=0;entryDy=0;" edge="1" parent="1">
          <mxGeometry width="50" height="50" relative="1" as="geometry">
            <mxPoint x="103.80000000000001" y="150" as="sourcePoint" />
            <mxPoint x="103.80000000000001" y="190" as="targetPoint" />
          </mxGeometry>
        </mxCell>
        <mxCell id="fM1rhRctBXFKmCM709nG-7" value="" style="endArrow=classic;html=1;rounded=0;exitX=0.5;exitY=1;exitDx=0;exitDy=0;exitPerimeter=0;entryX=0.5;entryY=0;entryDx=0;entryDy=0;" edge="1" parent="1">
          <mxGeometry width="50" height="50" relative="1" as="geometry">
            <mxPoint x="103.66000000000003" y="370" as="sourcePoint" />
            <mxPoint x="103.66000000000003" y="410" as="targetPoint" />
          </mxGeometry>
        </mxCell>
        <mxCell id="fM1rhRctBXFKmCM709nG-8" value="" style="endArrow=classic;html=1;rounded=0;exitX=1;exitY=0.5;exitDx=0;exitDy=0;entryX=0;entryY=0.5;entryDx=0;entryDy=0;" edge="1" parent="1" source="fM1rhRctBXFKmCM709nG-4" target="fM1rhRctBXFKmCM709nG-5">
          <mxGeometry relative="1" as="geometry">
            <mxPoint x="114" y="230" as="sourcePoint" />
            <mxPoint x="294" y="330" as="targetPoint" />
            <Array as="points" />
          </mxGeometry>
        </mxCell>
        <mxCell id="fM1rhRctBXFKmCM709nG-9" value="Yes" style="edgeLabel;resizable=0;html=1;;align=center;verticalAlign=middle;" connectable="0" vertex="1" parent="fM1rhRctBXFKmCM709nG-8">
          <mxGeometry relative="1" as="geometry" />
        </mxCell>
        <mxCell id="fM1rhRctBXFKmCM709nG-12" value="" style="endArrow=classic;html=1;rounded=0;exitX=0.5;exitY=1;exitDx=0;exitDy=0;exitPerimeter=0;entryX=0.5;entryY=0;entryDx=0;entryDy=0;" edge="1" parent="1">
          <mxGeometry width="50" height="50" relative="1" as="geometry">
            <mxPoint x="103.58000000000001" y="250" as="sourcePoint" />
            <mxPoint x="103.58000000000001" y="290" as="targetPoint" />
          </mxGeometry>
        </mxCell>
        <mxCell id="fM1rhRctBXFKmCM709nG-23" value="게이지 설정 세팅" style="rounded=0;whiteSpace=wrap;html=1;" vertex="1" parent="1">
          <mxGeometry x="44" y="410" width="120" height="60" as="geometry" />
        </mxCell>
        <mxCell id="fM1rhRctBXFKmCM709nG-24" value="달력정보 세팅" style="rounded=0;whiteSpace=wrap;html=1;" vertex="1" parent="1">
          <mxGeometry x="44" y="500" width="120" height="60" as="geometry" />
        </mxCell>
        <mxCell id="fM1rhRctBXFKmCM709nG-25" value="DB에서 닉네임획득" style="rounded=0;whiteSpace=wrap;html=1;" vertex="1" parent="1">
          <mxGeometry x="44" y="590" width="120" height="60" as="geometry" />
        </mxCell>
        <mxCell id="fM1rhRctBXFKmCM709nG-26" value="DB에서 아바타&lt;div&gt;이미지 패스 획득&lt;/div&gt;" style="rounded=0;whiteSpace=wrap;html=1;" vertex="1" parent="1">
          <mxGeometry x="44" y="680" width="120" height="60" as="geometry" />
        </mxCell>
        <mxCell id="fM1rhRctBXFKmCM709nG-27" value="화면 출력" style="shape=document;whiteSpace=wrap;html=1;boundedLbl=1;" vertex="1" parent="1">
          <mxGeometry x="44" y="770" width="120" height="60" as="geometry" />
        </mxCell>
        <mxCell id="fM1rhRctBXFKmCM709nG-28" value="메인페이지 종료" style="strokeWidth=2;html=1;shape=mxgraph.flowchart.terminator;whiteSpace=wrap;" vertex="1" parent="1">
          <mxGeometry x="54" y="870" width="100" height="60" as="geometry" />
        </mxCell>
        <mxCell id="fM1rhRctBXFKmCM709nG-29" value="" style="endArrow=classic;html=1;rounded=0;exitX=0.5;exitY=1;exitDx=0;exitDy=0;entryX=0.5;entryY=0;entryDx=0;entryDy=0;" edge="1" parent="1" source="fM1rhRctBXFKmCM709nG-23" target="fM1rhRctBXFKmCM709nG-24">
          <mxGeometry width="50" height="50" relative="1" as="geometry">
            <mxPoint x="174" y="670" as="sourcePoint" />
            <mxPoint x="224" y="620" as="targetPoint" />
          </mxGeometry>
        </mxCell>
        <mxCell id="fM1rhRctBXFKmCM709nG-30" value="" style="endArrow=classic;html=1;rounded=0;exitX=0.5;exitY=1;exitDx=0;exitDy=0;entryX=0.5;entryY=0;entryDx=0;entryDy=0;" edge="1" parent="1">
          <mxGeometry width="50" height="50" relative="1" as="geometry">
            <mxPoint x="103.77000000000001" y="560" as="sourcePoint" />
            <mxPoint x="103.77000000000001" y="590" as="targetPoint" />
          </mxGeometry>
        </mxCell>
        <mxCell id="fM1rhRctBXFKmCM709nG-31" value="" style="endArrow=classic;html=1;rounded=0;exitX=0.5;exitY=1;exitDx=0;exitDy=0;entryX=0.5;entryY=0;entryDx=0;entryDy=0;" edge="1" parent="1">
          <mxGeometry width="50" height="50" relative="1" as="geometry">
            <mxPoint x="103.76999999999998" y="650" as="sourcePoint" />
            <mxPoint x="103.76999999999998" y="680" as="targetPoint" />
          </mxGeometry>
        </mxCell>
        <mxCell id="fM1rhRctBXFKmCM709nG-32" value="" style="endArrow=classic;html=1;rounded=0;exitX=0.5;exitY=1;exitDx=0;exitDy=0;entryX=0.5;entryY=0;entryDx=0;entryDy=0;" edge="1" parent="1">
          <mxGeometry width="50" height="50" relative="1" as="geometry">
            <mxPoint x="103.75999999999999" y="740" as="sourcePoint" />
            <mxPoint x="103.75999999999999" y="770" as="targetPoint" />
          </mxGeometry>
        </mxCell>
        <mxCell id="fM1rhRctBXFKmCM709nG-33" value="" style="endArrow=classic;html=1;rounded=0;exitX=0.5;exitY=1;exitDx=0;exitDy=0;entryX=0.5;entryY=0;entryDx=0;entryDy=0;entryPerimeter=0;" edge="1" parent="1" target="fM1rhRctBXFKmCM709nG-28">
          <mxGeometry width="50" height="50" relative="1" as="geometry">
            <mxPoint x="103.75999999999999" y="820" as="sourcePoint" />
            <mxPoint x="103.75999999999999" y="850" as="targetPoint" />
          </mxGeometry>
        </mxCell>
        <mxCell id="fM1rhRctBXFKmCM709nG-34" value="&lt;font style=&quot;font-size: 18px;&quot;&gt;MAIN PAGE&lt;/font&gt;" style="text;html=1;align=center;verticalAlign=middle;resizable=0;points=[];autosize=1;strokeColor=none;fillColor=none;" vertex="1" parent="1">
          <mxGeometry x="44" y="35" width="120" height="40" as="geometry" />
        </mxCell>
        <mxCell id="fM1rhRctBXFKmCM709nG-35" value="&lt;font style=&quot;font-size: 18px;&quot;&gt;LIST PAGE&lt;/font&gt;" style="text;html=1;align=center;verticalAlign=middle;resizable=0;points=[];autosize=1;strokeColor=none;fillColor=none;" vertex="1" parent="1">
          <mxGeometry x="500" y="35" width="110" height="40" as="geometry" />
        </mxCell>
        <mxCell id="fM1rhRctBXFKmCM709nG-36" value="리스트페이지&lt;div&gt;시작&lt;/div&gt;" style="strokeWidth=2;html=1;shape=mxgraph.flowchart.terminator;whiteSpace=wrap;" vertex="1" parent="1">
          <mxGeometry x="500" y="90" width="100" height="60" as="geometry" />
        </mxCell>
        <mxCell id="fM1rhRctBXFKmCM709nG-37" value="DB접속" style="rounded=0;whiteSpace=wrap;html=1;" vertex="1" parent="1">
          <mxGeometry x="490" y="190" width="120" height="60" as="geometry" />
        </mxCell>
        <mxCell id="fM1rhRctBXFKmCM709nG-38" value="" style="endArrow=classic;html=1;rounded=0;exitX=0.5;exitY=1;exitDx=0;exitDy=0;exitPerimeter=0;entryX=0.5;entryY=0;entryDx=0;entryDy=0;" edge="1" parent="1">
          <mxGeometry width="50" height="50" relative="1" as="geometry">
            <mxPoint x="549.8" y="150" as="sourcePoint" />
            <mxPoint x="549.8" y="190" as="targetPoint" />
          </mxGeometry>
        </mxCell>
        <mxCell id="fM1rhRctBXFKmCM709nG-39" value="DB접속&lt;div&gt;예외발생&lt;/div&gt;" style="rhombus;whiteSpace=wrap;html=1;" vertex="1" parent="1">
          <mxGeometry x="510" y="290" width="80" height="80" as="geometry" />
        </mxCell>
        <mxCell id="fM1rhRctBXFKmCM709nG-40" value="예외메세지 출력" style="shape=document;whiteSpace=wrap;html=1;boundedLbl=1;" vertex="1" parent="1">
          <mxGeometry x="676" y="290" width="120" height="80" as="geometry" />
        </mxCell>
        <mxCell id="fM1rhRctBXFKmCM709nG-41" value="" style="endArrow=classic;html=1;rounded=0;exitX=0.5;exitY=1;exitDx=0;exitDy=0;exitPerimeter=0;entryX=0.5;entryY=0;entryDx=0;entryDy=0;" edge="1" parent="1">
          <mxGeometry width="50" height="50" relative="1" as="geometry">
            <mxPoint x="549.6600000000001" y="370" as="sourcePoint" />
            <mxPoint x="549.6600000000001" y="410" as="targetPoint" />
          </mxGeometry>
        </mxCell>
        <mxCell id="fM1rhRctBXFKmCM709nG-42" value="" style="endArrow=classic;html=1;rounded=0;exitX=1;exitY=0.5;exitDx=0;exitDy=0;entryX=0;entryY=0.5;entryDx=0;entryDy=0;" edge="1" parent="1" source="fM1rhRctBXFKmCM709nG-39" target="fM1rhRctBXFKmCM709nG-40">
          <mxGeometry relative="1" as="geometry">
            <mxPoint x="560" y="230" as="sourcePoint" />
            <mxPoint x="740" y="330" as="targetPoint" />
            <Array as="points" />
          </mxGeometry>
        </mxCell>
        <mxCell id="fM1rhRctBXFKmCM709nG-43" value="Yes" style="edgeLabel;resizable=0;html=1;;align=center;verticalAlign=middle;" connectable="0" vertex="1" parent="fM1rhRctBXFKmCM709nG-42">
          <mxGeometry relative="1" as="geometry" />
        </mxCell>
        <mxCell id="fM1rhRctBXFKmCM709nG-44" value="" style="endArrow=classic;html=1;rounded=0;exitX=0.5;exitY=1;exitDx=0;exitDy=0;exitPerimeter=0;entryX=0.5;entryY=0;entryDx=0;entryDy=0;" edge="1" parent="1">
          <mxGeometry width="50" height="50" relative="1" as="geometry">
            <mxPoint x="549.58" y="250" as="sourcePoint" />
            <mxPoint x="549.58" y="290" as="targetPoint" />
          </mxGeometry>
        </mxCell>
        <mxCell id="fM1rhRctBXFKmCM709nG-45" value="no 파라미터&lt;div&gt;획득&lt;/div&gt;" style="rhombus;whiteSpace=wrap;html=1;" vertex="1" parent="1">
          <mxGeometry x="500" y="410" width="100" height="80" as="geometry" />
        </mxCell>
      </root>
    </mxGraphModel>
  </diagram>
</mxfile>
